<svg xmlns="http://www.w3.org/2000/svg" viewBox="0 0 64 64" width="64px" height="64px">
  <path stroke-width="0" opacity="1" d="M 26.856 27.489 C 28.195 27.404 30.109 27.478 31.083 27.669 C 31.717 27.793 31.98 27.926 32.431 28.208 C 32.954 28.535 33.534 29.032 34.005 29.602 C 34.519 30.225 35.065 30.951 35.354 31.85 C 35.685 32.882 35.837 34.504 35.713 35.536 C 35.61 36.39 35.069 36.939 34.904 37.694 C 34.735 38.466 34.869 39.368 34.724 40.122 C 34.589 40.83 34.462 41.408 34.095 42.1 C 33.651 42.937 33.207 43.784 32.072 44.753 C 30.307 46.258 25.64 48.871 23.44 49.878 C 21.968 50.551 21.226 50.768 19.933 50.957 C 18.497 51.167 16.631 51.112 15.167 50.957 C 13.834 50.816 12.417 50.555 11.481 50.148 C 10.746 49.828 10.221 49.393 9.817 48.934 C 9.459 48.527 9.248 48.055 9.098 47.585 C 8.952 47.125 8.873 46.655 8.918 46.147 C 8.968 45.583 9.181 44.861 9.458 44.348 C 9.717 43.868 10.077 43.462 10.492 43.134 C 10.914 42.8 11.539 42.747 11.975 42.37 C 12.449 41.96 12.801 41.092 13.189 40.707 C 13.484 40.414 13.68 40.438 14.043 40.122 C 14.631 39.613 16.063 37.959 16.426 37.649 C 16.556 37.539 16.54 37.671 16.651 37.515 C 17.06 36.942 18.519 32.716 19.348 31.31 C 19.905 30.368 20.281 29.905 20.922 29.377 C 21.579 28.835 22.351 28.428 23.26 28.118 C 24.292 27.767 25.595 27.57 26.856 27.489 Z" style="fill-opacity: 1; fill-rule: nonzero; stroke-dasharray: none; stroke-dashoffset: 0px; stroke-linecap: butt; stroke-linejoin: miter; stroke-miterlimit: 4; stroke-opacity: 1; stroke-width: 8px; paint-order: stroke; vector-effect: none; opacity: 1; mix-blend-mode: normal; isolation: auto; stroke: rgb(46, 46, 46); fill: rgb(86, 86, 86);"></path>
  <path fill="rgb(255,0,0)" stroke="rgb(255,0,0)" stroke-width="0" opacity="1" d="M 29.885 18.338 C 30.804 18.206 32.175 18.331 32.963 18.481 C 33.547 18.593 33.783 18.926 34.324 18.983 C 34.982 19.051 36.013 18.66 36.686 18.696 C 37.242 18.726 37.667 18.811 38.118 19.054 C 38.615 19.322 39.077 19.608 39.514 20.307 C 40.19 21.388 40.351 24.459 41.34 25.569 C 42.17 26.5 43.625 26.376 44.633 27.001 C 45.642 27.627 46.474 28.217 47.39 29.328 C 48.588 30.781 50.318 33.792 50.969 35.413 C 51.423 36.541 51.621 37.347 51.542 38.205 C 51.468 39.008 50.697 39.856 50.612 40.425 C 50.553 40.816 50.788 40.997 50.755 41.355 C 50.713 41.805 50.48 42.526 50.253 42.931 C 50.067 43.263 49.893 43.459 49.573 43.683 C 49.171 43.964 48.633 44.262 47.927 44.398 C 46.988 44.579 45.407 44.616 44.275 44.398 C 43.195 44.191 42.076 43.64 41.269 43.181 C 40.597 42.8 40.311 42.611 39.658 41.929 C 38.602 40.827 36.773 37.978 35.576 36.559 C 34.641 35.449 33.745 34.801 33.071 33.91 C 32.462 33.105 31.977 32.27 31.639 31.476 C 31.334 30.758 31.5 29.945 31.066 29.364 C 30.592 28.729 29.458 28.654 28.775 27.896 C 27.937 26.965 27.026 25.021 26.627 23.887 C 26.327 23.032 26.233 22.311 26.269 21.667 C 26.3 21.121 26.465 20.66 26.699 20.235 C 26.932 19.813 27.212 19.426 27.666 19.125 C 28.214 18.762 29.059 18.456 29.885 18.338 Z" style="fill: rgb(86, 86, 86); fill-opacity: 1; fill-rule: nonzero; stroke: rgb(46, 46, 46); stroke-dasharray: none; stroke-dashoffset: 0px; stroke-linecap: butt; stroke-linejoin: miter; stroke-miterlimit: 4; stroke-opacity: 1; stroke-width: 8px; paint-order: stroke; vector-effect: none; opacity: 1; mix-blend-mode: normal; isolation: auto;"></path>
</svg>