<svg xmlns="http://www.w3.org/2000/svg" viewBox="0 0 64 64" width="64px" height="64px">
  <path stroke-width="0" opacity="1" d="M 28.894 20.028 C 29.962 19.979 31.526 20.028 32.61 20.43 C 33.635 20.81 34.672 21.595 35.272 22.287 C 35.776 22.871 36.001 23.458 36.175 24.196 C 36.374 25.035 36.417 26.091 36.276 27.108 C 36.119 28.224 35.658 29.638 35.171 30.622 C 34.743 31.487 34.293 32.225 33.614 32.781 C 32.914 33.356 31.967 33.778 31.003 33.986 C 29.972 34.21 28.531 34.146 27.589 33.986 C 26.824 33.858 26.221 33.611 25.681 33.284 C 25.179 32.979 24.853 32.659 24.426 32.129 C 23.871 31.439 23.05 30.284 22.718 29.317 C 22.408 28.406 22.297 27.487 22.418 26.506 C 22.551 25.421 23.087 23.986 23.623 23.091 C 24.077 22.33 24.744 21.775 25.279 21.333 C 25.726 20.965 26.053 20.739 26.585 20.53 C 27.218 20.28 28.006 20.068 28.894 20.028 Z" style="fill-opacity: 1; fill-rule: nonzero; stroke-dasharray: none; stroke-dashoffset: 0px; stroke-linecap: butt; stroke-linejoin: miter; stroke-miterlimit: 4; stroke-opacity: 1; stroke-width: 8px; paint-order: stroke; vector-effect: none; opacity: 1; mix-blend-mode: normal; isolation: auto; fill: rgb(213, 155, 70); stroke: rgb(166, 107, 55);"></path>
  <path stroke-width="0" opacity="1" d="M 18.752 33.183 C 19.75 33.095 21.051 33.055 22.066 33.384 C 23.076 33.71 24.187 34.511 24.828 35.141 C 25.343 35.648 25.599 36.078 25.832 36.748 C 26.113 37.557 26.308 38.853 26.234 39.76 C 26.167 40.576 25.867 41.357 25.53 41.97 C 25.228 42.522 24.916 42.858 24.376 43.325 C 23.67 43.936 22.306 44.834 21.464 45.234 C 20.82 45.539 20.368 45.649 19.756 45.735 C 19.102 45.828 18.411 45.806 17.648 45.735 C 16.787 45.657 15.712 45.623 14.836 45.234 C 13.915 44.825 12.842 43.925 12.275 43.275 C 11.835 42.771 11.639 42.313 11.472 41.769 C 11.3 41.211 11.2 40.619 11.271 39.961 C 11.353 39.198 11.66 38.199 12.074 37.451 C 12.484 36.711 13.058 36.085 13.731 35.493 C 14.459 34.853 15.467 34.173 16.342 33.785 C 17.141 33.432 17.864 33.261 18.752 33.183 Z" style="fill-opacity: 1; fill-rule: nonzero; stroke-dasharray: none; stroke-dashoffset: 0px; stroke-linecap: butt; stroke-linejoin: miter; stroke-miterlimit: 4; stroke-opacity: 1; stroke-width: 8px; paint-order: stroke; vector-effect: none; opacity: 1; mix-blend-mode: normal; isolation: auto; fill: rgb(213, 155, 70); stroke: rgb(166, 107, 55);"></path>
  <path stroke-width="0" opacity="1" d="M 43.556 25.551 C 44.428 25.41 45.278 25.526 46.067 25.651 C 46.814 25.771 47.462 25.918 48.175 26.254 C 48.982 26.634 50.01 27.29 50.636 27.912 C 51.189 28.46 51.572 28.966 51.841 29.719 C 52.161 30.612 52.34 31.989 52.243 33.032 C 52.15 34.026 51.792 35.008 51.339 35.845 C 50.897 36.661 50.301 37.429 49.582 38.003 C 48.849 38.59 47.892 39.074 46.97 39.309 C 46.05 39.544 45.008 39.558 44.059 39.41 C 43.099 39.26 41.954 38.822 41.247 38.405 C 40.681 38.073 40.387 37.83 39.991 37.251 C 39.445 36.45 38.752 34.718 38.485 33.736 C 38.283 32.99 38.255 32.539 38.285 31.827 C 38.319 30.994 38.414 29.874 38.786 29.016 C 39.163 28.147 39.769 27.23 40.544 26.656 C 41.346 26.061 42.595 25.707 43.556 25.551 Z" style="fill-opacity: 1; fill-rule: nonzero; stroke-dasharray: none; stroke-dashoffset: 0px; stroke-linecap: butt; stroke-linejoin: miter; stroke-miterlimit: 4; stroke-opacity: 1; stroke-width: 8px; paint-order: stroke; vector-effect: none; opacity: 1; mix-blend-mode: normal; isolation: auto; fill: rgb(213, 155, 70); stroke: rgb(166, 107, 55);"></path>
  <path stroke-width="0" opacity="1" d="M 35.322 35.493 C 36.064 35.435 36.813 35.61 37.43 35.895 C 38.03 36.171 38.601 36.707 38.987 37.149 C 39.321 37.533 39.524 37.881 39.69 38.354 C 39.878 38.896 40.044 39.604 39.991 40.262 C 39.934 40.973 39.606 41.906 39.289 42.473 C 39.026 42.938 38.748 43.217 38.334 43.526 C 37.858 43.884 37.121 44.268 36.527 44.431 C 35.984 44.578 35.476 44.615 34.92 44.531 C 34.309 44.439 33.525 44.133 33.012 43.827 C 32.568 43.563 32.259 43.264 31.958 42.873 C 31.633 42.454 31.321 41.892 31.154 41.367 C 30.991 40.854 30.902 40.329 30.953 39.76 C 31.01 39.13 31.246 38.324 31.556 37.752 C 31.845 37.216 32.168 36.757 32.711 36.396 C 33.357 35.966 34.5 35.559 35.322 35.493 Z" style="fill-opacity: 1; fill-rule: nonzero; stroke-dasharray: none; stroke-dashoffset: 0px; stroke-linecap: butt; stroke-linejoin: miter; stroke-miterlimit: 4; stroke-opacity: 1; stroke-width: 8px; paint-order: stroke; vector-effect: none; opacity: 1; mix-blend-mode: normal; isolation: auto; fill: rgb(213, 155, 70); stroke: rgb(166, 107, 55);"></path>
</svg>