<svg xmlns="http://www.w3.org/2000/svg" viewBox="0 0 64 64" width="64px" height="64px">
  <path stroke-width="0" opacity="0.9882352941176471" d="M 48.604 26.401 C 48.036 27.278 46.129 29.34 45.735 29.731 C 45.609 29.856 45.662 29.747 45.53 29.884 C 45.063 30.368 42.404 33.888 41.74 34.546 C 41.471 34.812 41.479 34.649 41.227 34.904 C 40.656 35.484 38.659 38.317 38.257 38.746 C 38.132 38.878 38.189 38.771 38.052 38.9 C 37.581 39.34 35.188 42.227 34.21 42.946 C 34.162 42.982 34.116 43.015 34.072 43.046 C 33.96 43.185 33.838 43.331 33.708 43.48 C 33.447 43.972 33.109 44.493 32.724 45.046 C 31.849 46.305 30.23 48.379 29.088 49.298 C 28.929 49.426 28.77 49.542 28.613 49.648 C 28.399 49.92 28.182 50.157 27.991 50.322 C 27.533 50.717 27.121 50.826 26.557 50.937 C 25.891 51.068 25.147 50.983 24.2 50.937 C 22.97 50.878 20.848 50.529 19.693 50.527 C 18.866 50.526 18.418 50.882 17.746 50.732 C 16.974 50.56 15.883 49.896 15.339 49.349 C 14.887 48.896 14.674 48.368 14.519 47.812 C 14.361 47.243 14.286 46.594 14.417 45.968 C 14.464 45.742 14.531 45.498 14.619 45.252 C 14.588 44.726 14.628 44.137 14.694 43.407 C 14.823 41.991 15.062 39.308 15.616 37.978 C 15.976 37.112 16.518 36.458 17.043 35.994 C 17.846 34.928 18.853 33.713 19.129 33.419 C 19.253 33.287 19.255 33.314 19.334 33.265 C 19.423 33.211 19.563 33.176 19.641 33.111 C 19.711 33.054 19.737 32.991 19.795 32.907 C 19.87 32.797 19.913 32.65 20.051 32.497 C 20.25 32.276 20.616 32.111 20.973 31.728 C 21.498 31.166 22.141 29.851 22.868 29.219 C 22.978 29.123 23.092 29.03 23.209 28.941 C 25.636 25.725 31.28 18.944 33.493 16.618 C 34.927 15.11 35.796 14.404 36.669 13.852 C 36.779 13.782 36.881 13.72 36.977 13.664 C 37.393 13.332 37.652 13.246 38.41 13.135 C 39.924 12.913 44.368 12.93 46.094 13.339 C 47.214 13.605 47.839 14.006 48.399 14.569 C 48.925 15.099 49.212 15.563 49.423 16.566 C 49.767 18.199 49.681 22.552 49.423 24.147 C 49.363 24.516 49.289 24.804 49.201 25.048 C 49.099 25.52 48.958 25.853 48.604 26.401 Z" style="fill-opacity: 1; fill-rule: nonzero; stroke-dasharray: none; stroke-dashoffset: 0px; stroke-linecap: butt; stroke-linejoin: miter; stroke-miterlimit: 4; stroke-opacity: 1; stroke-width: 8px; paint-order: stroke; vector-effect: none; opacity: 1; mix-blend-mode: normal; isolation: auto; fill: rgb(194, 255, 169); stroke: rgb(90, 151, 77);"></path>
</svg>