<svg xmlns="http://www.w3.org/2000/svg" viewBox="0 0 64 64" width="64px" height="64px">
  <path fill="rgb(255,0,0)" stroke="rgb(255,0,0)" stroke-width="0" opacity="0.984313725490196" d="M 48.433 23.919 C 48.727 24.242 48.92 24.542 49.069 24.994 C 49.159 25.27 49.231 25.627 49.276 26.003 C 49.332 26.332 49.365 26.675 49.326 27.032 C 49.322 27.182 49.311 27.325 49.293 27.457 C 49.204 28.094 49.036 28.428 48.621 29.136 C 47.97 30.245 45.712 33.073 45.263 33.557 C 45.126 33.704 45.186 33.56 45.039 33.725 C 44.449 34.386 40.367 40.285 39.778 40.946 C 39.63 41.111 39.696 40.948 39.554 41.114 C 38.998 41.763 35.993 47.026 34.796 48.109 C 34.166 48.681 33.793 48.666 33.229 48.781 C 32.64 48.9 32.004 49.001 31.326 48.781 C 30.48 48.507 29.146 47.587 28.583 46.935 C 28.348 46.661 28.205 46.398 28.105 46.118 C 27.898 45.768 27.731 45.446 27.608 45.311 C 27.501 45.192 27.504 45.264 27.384 45.144 C 27.093 44.845 25.998 43.37 25.706 43.072 C 25.587 42.952 25.609 43.034 25.482 42.905 C 25.133 42.547 23.654 40.524 23.243 40.162 C 23.076 40.015 23.114 40.195 22.908 39.994 C 22.104 39.217 17.464 33.102 16.191 31.151 C 15.473 30.051 15.201 29.615 14.96 28.801 C 14.725 28.008 14.548 27.141 14.736 26.338 C 14.89 25.683 15.312 24.91 15.788 24.315 C 16.071 23.772 16.392 23.222 16.718 22.722 C 17.554 21.436 19.422 19.408 19.853 18.973 C 19.989 18.834 19.976 18.914 20.076 18.805 C 20.274 18.587 20.5 17.941 20.972 17.518 C 21.578 16.974 22.773 16.14 23.693 15.873 C 24.145 15.499 24.298 15.419 25.281 15.279 C 27.45 14.972 35.894 15.067 39.701 15.359 C 40.105 15.344 40.525 15.383 40.924 15.482 C 40.973 15.489 41.02 15.496 41.065 15.503 C 42.114 15.669 42.262 15.858 42.744 16.174 C 43.209 16.48 43.612 16.895 43.919 17.349 C 44.118 17.643 44.29 17.971 44.418 18.317 C 45.774 19.99 47.652 22.654 48.433 23.919 Z" style="fill: rgb(149, 252, 255); fill-opacity: 1; fill-rule: nonzero; stroke: rgb(64, 118, 139); stroke-dasharray: none; stroke-dashoffset: 0px; stroke-linecap: butt; stroke-linejoin: miter; stroke-miterlimit: 4; stroke-opacity: 1; stroke-width: 8px; paint-order: stroke; vector-effect: none; opacity: 1; mix-blend-mode: normal; isolation: auto;"></path>
</svg>