<svg xmlns="http://www.w3.org/2000/svg" viewBox="0 0 64 64" width="64px" height="64px">
  <path d="M 30.67 20.31 C 32.294 20.221 34.512 20.14 36.676 20.427 C 38.856 20.789 41.613 21.7 43.108 22.282 C 44.127 22.681 45.004 23.087 46.389 24.002 C 47.929 25.146 50.3 27.485 51.533 28.766 C 52.551 29.825 53.437 30.853 54.164 31.863 C 54.835 32.844 55.384 33.866 55.741 34.607 C 55.986 35.125 56.41 36.081 56.757 37.345 C 56.949 38.455 57.002 40.248 56.871 41.389 C 56.667 42.504 56.166 43.911 55.765 44.67 C 55.265 45.427 54.604 46.171 53.992 46.671 C 53.179 47.27 51.662 48.134 50.507 48.643 C 49.615 49.021 48.346 49.568 46.092 50.012 C 43.314 50.4 38.289 50.496 34.153 50.197 C 29.605 49.851 22.923 48.761 19.349 47.833 C 16.661 47.087 14.835 46.234 13.42 45.507 C 12.158 44.85 10.553 43.787 9.606 42.888 C 8.802 41.812 8.236 40.73 8.038 40.059 C 7.786 38.621 7.903 37.739 7.858 37.508 C 8.563 38.137 8.245 37.992 7.233 36.498 C 7.022 35.756 6.867 34.492 6.897 33.569 C 7.017 32.693 7.428 31.318 7.823 30.495 C 7.885 30.477 8.496 29.657 9.838 28.145 C 11.462 26.956 16.809 24.054 19.568 22.868 C 21.92 21.89 23.994 21.331 25.774 20.938 C 27.515 20.569 29.065 20.399 30.67 20.31 Z M 27.49 28.752 C 25.856 29.109 24.493 29.442 22.704 30.228 C 20.453 31.18 16.407 33.332 14.931 34.334 C 15.024 34.477 15.193 34.741 15.49 35.208 C 15.675 36.228 15.658 37.192 15.677 37.634 C 15.953 37.825 16.412 38.054 17.086 38.397 C 18.439 39.092 19.439 39.628 21.375 40.093 C 24.577 40.943 30.545 41.915 34.746 42.219 C 38.515 42.508 42.669 42.442 44.941 42.095 C 45.901 42.073 46.164 41.811 47.34 41.297 C 48.002 41.022 48.585 40.717 48.947 40.46 C 48.951 40.415 48.951 40.356 48.949 40.27 C 49.044 39.814 49.027 39.355 48.909 38.896 C 48.986 38.793 48.882 38.795 48.531 38.073 C 48.225 37.435 48.016 36.991 47.632 36.482 C 47.159 35.794 46.657 35.231 45.773 34.316 C 44.59 33.087 42.757 31.214 41.707 30.489 C 41.248 30.073 41.251 30.147 40.188 29.73 C 38.857 29.208 36.962 28.529 35.475 28.336 C 34.136 28.088 32.736 28.209 31.108 28.298 C 29.697 28.371 28.783 28.455 27.49 28.752 Z" style="fill: rgb(95, 66, 25);"></path>
  <path stroke-width="0" opacity="0.9882352941176471" d="M 24.231 19.736 C 26.918 19.57 32.093 19.452 34.681 19.736 C 36.481 19.934 37.451 20.315 38.782 20.742 C 40.108 21.168 41.249 21.642 42.653 22.291 C 44.28 23.042 46.364 24.015 47.993 25.078 C 49.566 26.102 51.326 27.415 52.29 28.522 C 53.029 29.371 53.418 30.194 53.683 30.998 C 53.918 31.712 54.077 32.409 53.915 33.088 C 53.74 33.818 53.077 34.759 52.56 35.217 C 52.139 35.592 51.632 35.736 51.167 35.836 C 50.729 35.931 50.276 35.914 49.851 35.836 C 49.425 35.759 48.972 35.591 48.613 35.371 C 48.266 35.16 48.045 34.932 47.723 34.559 C 47.291 34.059 46.9 33.119 46.291 32.508 C 45.641 31.857 44.866 31.4 43.891 30.805 C 42.687 30.071 40.908 29.129 39.48 28.483 C 38.153 27.883 36.512 27.303 35.609 27.013 C 35.046 26.831 35.1 26.774 34.371 26.703 C 32.727 26.542 27.234 26.491 24.618 26.703 C 22.624 26.864 21.128 27.144 19.742 27.554 C 18.563 27.902 17.577 28.408 16.723 28.87 C 15.992 29.266 11.883 31.121 10.093 30.379 C 8.304 29.638 9.552 27.798 10.105 26.664 C 10.797 25.245 10.331 25.558 10.569 25.116 C 10.792 24.702 11.046 24.438 11.46 24.071 C 12.004 23.587 12.853 22.983 13.705 22.523 C 14.638 22.017 15.854 21.576 16.878 21.207 C 17.837 20.862 18.582 20.588 19.664 20.356 C 20.965 20.076 22.295 19.857 24.231 19.736 Z" style="fill-opacity: 1; fill-rule: nonzero; stroke-dasharray: none; stroke-dashoffset: 0px; stroke-linecap: butt; stroke-linejoin: miter; stroke-miterlimit: 4; stroke-opacity: 1; stroke-width: 8px; paint-order: stroke; vector-effect: none; opacity: 1; mix-blend-mode: normal; isolation: auto; stroke: rgb(21, 95, 37); fill: rgb(43, 133, 48); transform-box: fill-box; transform-origin: 50% 50%;" transform="matrix(0.998454, -0.055584, 0.055584, 0.998454, 0, 0)"></path>
  <path fill="rgb(255,0,0)" stroke-width="0" opacity="0.9921568627450981" d="M 30.889 24.304 C 32.515 24.215 34.323 24.114 36.075 24.381 C 37.908 24.659 40.235 25.454 41.648 26.006 C 42.689 26.414 43.125 26.579 44.047 27.245 C 45.342 28.179 47.445 30.286 48.653 31.541 C 49.604 32.528 50.298 33.323 50.898 34.172 C 51.425 34.917 51.804 35.65 52.136 36.34 C 52.434 36.96 52.698 37.437 52.833 38.12 C 52.988 38.905 53.023 40.031 52.91 40.829 C 52.811 41.53 52.555 42.222 52.291 42.687 C 52.081 43.055 51.937 43.206 51.555 43.499 C 50.984 43.939 49.89 44.554 48.924 44.97 C 47.89 45.416 47.125 45.82 45.518 46.053 C 42.993 46.421 38.402 46.502 34.45 46.208 C 30.075 45.883 23.75 44.852 20.362 43.963 C 18.05 43.358 16.637 42.663 15.253 41.952 C 14.126 41.371 13.056 40.71 12.506 40.133 C 12.124 39.731 12.029 39.478 11.887 38.971 C 11.698 38.303 11.847 36.993 11.654 36.34 C 11.511 35.855 11.164 35.65 11.035 35.256 C 10.903 34.852 10.838 34.397 10.88 33.94 C 10.926 33.446 11.107 32.834 11.345 32.392 C 11.568 31.978 11.616 31.811 12.235 31.347 C 13.611 30.317 18.543 27.654 21.136 26.548 C 23.206 25.666 24.925 25.22 26.632 24.845 C 28.149 24.512 29.381 24.385 30.889 24.304 Z" style="fill: rgb(133, 94, 43); fill-opacity: 1; fill-rule: nonzero; stroke-dasharray: none; stroke-dashoffset: 0px; stroke-linecap: butt; stroke-linejoin: miter; stroke-miterlimit: 4; stroke-opacity: 1; stroke-width: 8px; paint-order: stroke; vector-effect: none; opacity: 1; mix-blend-mode: normal; isolation: auto;"></path>
</svg>