<svg xmlns="http://www.w3.org/2000/svg" viewBox="0 0 64 64" width="64px" height="64px">
  <path fill="rgb(255,0,0)" stroke="rgb(255,0,0)" stroke-width="0" opacity="0.9921568627450981" d="M 29.163 14.457 C 31.092 14.148 34.434 14.355 36.508 14.457 C 38.184 14.541 39.656 14.652 40.801 14.909 C 41.689 15.109 42.374 15.338 42.947 15.7 C 43.454 16.02 43.739 16.371 44.134 16.887 C 44.625 17.529 45.058 18.214 45.603 19.373 C 46.421 21.113 47.768 24.776 48.428 26.83 C 48.932 28.401 49.274 29.424 49.445 30.785 C 49.619 32.172 49.811 33.832 49.445 35.078 C 49.103 36.236 48.78 36.867 47.467 38.071 C 45.064 40.278 36.361 45.459 33.683 46.772 C 32.385 47.408 31.781 47.156 31.141 47.563 C 30.593 47.911 30.421 48.579 29.954 48.919 C 29.495 49.253 28.969 49.478 28.373 49.597 C 27.706 49.729 26.94 49.756 26.113 49.597 C 25.126 49.407 23.901 48.942 22.836 48.354 C 21.694 47.724 20.49 46.828 19.503 45.868 C 18.512 44.907 17.406 43.073 16.903 42.591 C 16.683 42.379 16.645 42.514 16.452 42.309 C 16.061 41.895 15.098 40.675 14.757 39.71 C 14.409 38.722 14.241 37.412 14.418 36.434 C 14.583 35.526 14.828 34.849 15.66 34.004 C 16.938 32.71 21.284 32.068 22.44 29.88 C 23.723 27.454 21.817 21.666 22.214 19.598 C 22.439 18.429 23.045 17.74 23.344 17.395 C 23.497 17.22 23.541 17.304 23.739 17.169 C 24.126 16.906 24.863 16.126 25.66 15.7 C 26.607 15.195 27.694 14.692 29.163 14.457 Z" style="fill: rgb(137, 252, 110); fill-opacity: 1; fill-rule: nonzero; stroke: rgb(64, 139, 79); stroke-dasharray: none; stroke-dashoffset: 0px; stroke-linecap: butt; stroke-linejoin: miter; stroke-miterlimit: 4; stroke-opacity: 1; stroke-width: 8px; paint-order: stroke; vector-effect: none; opacity: 1; mix-blend-mode: normal; isolation: auto; transform-box: fill-box; transform-origin: 50% 50%;" transform="matrix(0.959508, 0.28168, -0.28168, 0.959508, 0, 0)"></path>
</svg>