<svg xmlns="http://www.w3.org/2000/svg" viewBox="0 0 64 64" width="64px" height="64px">
  <path stroke-width="0" opacity="0.9921568627450981" d="M 43.877 45.604 C 45.018 45.68 47.559 45.576 48.733 45.334 C 49.545 45.167 49.966 44.954 50.531 44.615 C 51.123 44.259 51.779 43.756 52.195 43.221 C 52.588 42.715 52.853 42.121 53.004 41.513 C 53.157 40.893 53.171 40.223 53.094 39.534 C 53.01 38.789 52.824 38.047 52.464 37.197 C 52.027 36.163 50.515 34.681 50.486 33.78 C 50.465 33.108 51.263 32.806 51.475 32.161 C 51.717 31.428 51.848 30.405 51.745 29.554 C 51.641 28.696 51.193 27.637 50.846 27.036 C 50.588 26.59 50.439 26.431 49.992 26.092 C 49.315 25.579 48.113 24.715 46.845 24.384 C 45.35 23.993 43.173 23.94 41.45 24.204 C 39.759 24.462 37.976 25.844 36.594 25.912 C 35.482 25.967 34.839 25.25 33.717 25.103 C 32.365 24.925 30.092 24.919 28.951 25.103 C 28.175 25.228 27.702 25.459 27.243 25.732 C 26.845 25.969 26.569 26.238 26.299 26.587 C 26.008 26.962 25.729 27.465 25.579 27.935 C 25.433 28.395 25.354 28.865 25.4 29.374 C 25.45 29.938 25.662 30.659 25.939 31.172 C 26.199 31.653 26.544 32.067 26.973 32.386 C 27.421 32.719 27.961 32.965 28.592 33.105 C 29.323 33.269 30.849 32.863 31.154 33.195 C 31.389 33.451 30.94 33.883 30.884 34.499 C 30.795 35.494 30.737 37.802 30.884 38.905 C 30.99 39.689 31.126 40.149 31.424 40.703 C 31.732 41.277 32.061 41.822 32.728 42.277 C 33.61 42.879 35.298 43.448 36.594 43.716 C 37.846 43.974 39.383 43.569 40.371 43.895 C 41.183 44.164 41.636 44.961 42.259 45.244 C 42.803 45.491 43.136 45.554 43.877 45.604 Z" style="fill-opacity: 1; fill-rule: nonzero; stroke-dasharray: none; stroke-dashoffset: 0px; stroke-linecap: butt; stroke-linejoin: miter; stroke-miterlimit: 4; stroke-opacity: 1; stroke-width: 8px; paint-order: stroke; vector-effect: none; opacity: 1; mix-blend-mode: normal; isolation: auto; stroke: rgb(171, 171, 171); fill: rgb(222, 222, 222); transform-box: fill-box; transform-origin: 50% 50%;" transform="matrix(-1, 0, 0, -1, 0.000001, 0.000003)"></path>
  <path stroke-width="0" opacity="0.9921568627450981" d="M 24.192 42.522 C 25.652 41.309 27.844 42.603 28.599 39.959 C 29.072 38.302 26.319 36.241 27.43 34.924 C 28.966 33.102 42.755 26.889 33.768 20.403 C 24.035 13.377 17.689 26.321 14.976 32.811 C 14.214 34.634 11.62 34.912 10.975 37.082 C 9.652 41.531 20.134 45.893 24.192 42.522 Z" style="fill-opacity: 1; fill-rule: nonzero; stroke-dasharray: none; stroke-dashoffset: 0px; stroke-linecap: butt; stroke-linejoin: miter; stroke-miterlimit: 4; stroke-opacity: 1; stroke-width: 8px; paint-order: stroke; vector-effect: none; opacity: 1; mix-blend-mode: normal; isolation: auto; stroke: rgb(171, 171, 171); fill: rgb(222, 222, 222); transform-box: fill-box; transform-origin: 50% 50%;" transform="matrix(-1, 0, 0, -1, -0.000001, 0.000001)"></path>
</svg>