<svg xmlns="http://www.w3.org/2000/svg" viewBox="0 0 64 64" width="64px" height="64px">
  <path fill="rgb(255,0,0)" stroke="rgb(255,0,0)" stroke-width="0" opacity="0.9882352941176471" d="M 27.323 14.929 C 28.103 14.817 29.261 14.773 30.192 15.134 C 31.232 15.537 32.848 17.131 33.214 17.439 C 33.33 17.537 33.283 17.5 33.367 17.592 C 33.557 17.798 34.23 18.617 34.443 18.822 C 34.545 18.919 34.537 18.872 34.648 18.975 C 34.908 19.218 35.819 20.236 36.133 20.563 C 36.309 20.746 36.273 20.726 36.492 20.922 C 36.988 21.366 38.126 22.699 39.514 23.432 C 41.345 24.398 45.411 24.997 46.993 25.788 C 47.979 26.281 48.448 26.715 48.888 27.273 C 49.278 27.77 49.473 28.248 49.605 28.913 C 49.766 29.726 49.849 30.772 49.605 31.884 C 49.301 33.267 48.472 35.023 47.556 36.596 C 46.554 38.318 44.8 40.694 43.714 41.77 C 42.997 42.48 42.247 42.642 41.819 43.05 C 41.504 43.351 41.356 43.758 41.205 43.921 C 41.119 44.013 41.12 43.948 41 44.075 C 40.636 44.458 39.247 46.687 38.49 47.302 C 37.975 47.72 37.741 47.783 37.055 47.916 C 35.988 48.124 33.986 47.863 32.343 48.019 C 30.582 48.186 28.628 48.789 26.811 48.941 C 25.044 49.088 22.939 49.329 21.586 48.941 C 20.499 48.628 19.929 48.324 19.076 47.25 C 17.686 45.5 15.427 39.525 14.774 37.928 C 14.488 37.23 14.44 37.2 14.364 36.698 C 14.267 36.061 14.145 35.215 14.364 34.342 C 14.637 33.25 15.401 32.014 16.208 30.654 C 17.188 29.002 19.248 26.583 19.998 25.122 C 20.511 24.123 20.363 23.657 20.818 22.663 C 21.453 21.277 23.204 18.197 23.789 17.49 C 24.026 17.203 24.081 17.327 24.301 17.131 C 24.663 16.809 25.251 15.914 25.786 15.543 C 26.266 15.211 26.698 15.018 27.323 14.929 Z" style="fill: rgb(252, 110, 125); fill-opacity: 1; fill-rule: nonzero; stroke: rgb(139, 64, 87); stroke-dasharray: none; stroke-dashoffset: 0px; stroke-linecap: butt; stroke-linejoin: miter; stroke-miterlimit: 4; stroke-opacity: 1; stroke-width: 8px; paint-order: stroke; vector-effect: none; opacity: 1; mix-blend-mode: normal; isolation: auto; transform-box: fill-box; transform-origin: 50% 50%;" transform="matrix(0.965926, -0.258819, 0.258819, 0.965926, 0, -0.000001)"></path>
</svg>