<svg xmlns="http://www.w3.org/2000/svg" viewBox="0 0 64 64" width="64px" height="64px">
  <path fill="rgb(255,0,0)" stroke="rgb(255,0,0)" stroke-width="0" opacity="0.9921568627450981" d="M 41.456 16.338 C 42.695 16.174 43.632 16.233 44.517 16.574 C 45.368 16.902 46.213 17.666 46.697 18.282 C 47.103 18.798 47.238 18.916 47.403 19.931 C 47.78 22.263 47.075 31.697 47.403 34.298 C 47.561 35.558 47.984 35.69 48.11 36.536 C 48.253 37.504 48.319 38.813 48.11 39.833 C 47.908 40.809 47.403 41.838 46.931 42.541 C 46.536 43.133 46.17 43.426 45.577 43.896 C 44.824 44.494 43.69 45.309 42.633 45.78 C 41.571 46.253 40.451 46.541 39.218 46.722 C 37.877 46.919 36.285 46.7 34.861 46.84 C 33.46 46.978 32.184 47.425 30.739 47.546 C 29.209 47.675 27.561 47.932 25.911 47.546 C 24.077 47.119 21.751 45.809 20.258 44.838 C 19.032 44.04 18.1 43.241 17.373 42.307 C 16.701 41.441 16.197 40.49 15.959 39.48 C 15.718 38.451 15.663 37.336 15.959 36.182 C 16.304 34.843 17.346 33.182 18.197 31.942 C 18.989 30.79 19.926 29.785 20.847 28.94 C 21.698 28.159 22.731 27.761 23.497 26.997 C 24.262 26.231 24.499 25.263 25.439 24.347 C 26.668 23.148 28.92 21.605 30.622 20.578 C 32.175 19.641 33.516 19.019 35.214 18.341 C 37.09 17.591 39.776 16.561 41.456 16.338 Z" style="fill: rgb(110, 133, 252); fill-opacity: 1; fill-rule: nonzero; stroke: rgb(64, 74, 139); stroke-dasharray: none; stroke-dashoffset: 0px; stroke-linecap: butt; stroke-linejoin: miter; stroke-miterlimit: 4; stroke-opacity: 1; stroke-width: 8px; paint-order: stroke; vector-effect: none; opacity: 1; mix-blend-mode: normal; isolation: auto; transform-box: fill-box; transform-origin: 50% 50%;" transform="matrix(0.965926, 0.258819, -0.258819, 0.965926, 0, 0)"></path>
</svg>