<svg xmlns="http://www.w3.org/2000/svg" viewBox="0 0 64 64" width="64px" height="64px">
  <path stroke-width="0" opacity="0.996078431372549" d="M 25.788 12.138 C 30.187 11.708 39.384 12.373 42.664 13.004 C 44.41 13.339 44.955 13.673 45.91 14.303 C 46.866 14.934 47.762 15.855 48.397 16.79 C 49.013 17.7 49.367 17.977 49.693 19.819 C 50.438 23.967 51.567 39.915 50.344 44.916 C 49.637 47.81 48.036 49.129 46.773 50.217 C 45.806 51.049 45.51 51.22 43.745 51.514 C 40.028 52.133 27.143 52.188 22.543 51.514 C 19.775 51.11 18.284 50.396 16.918 49.567 C 15.849 48.92 15.239 48.173 14.645 47.297 C 14.046 46.41 13.611 45.707 13.349 44.265 C 12.943 42.046 13.217 36.87 13.349 34.53 C 13.436 32.977 13.782 32.4 13.779 31.069 C 13.779 29.455 12.998 27.447 13.131 25.445 C 13.28 23.221 13.945 20.237 14.864 18.305 C 15.656 16.637 16.449 15.304 17.999 14.303 C 19.867 13.097 22.512 12.461 25.788 12.138 Z" style="fill-opacity: 1; fill-rule: nonzero; stroke-dasharray: none; stroke-dashoffset: 0px; stroke-linecap: butt; stroke-linejoin: miter; stroke-miterlimit: 4; stroke-opacity: 1; stroke-width: 8px; paint-order: stroke; vector-effect: none; opacity: 1; mix-blend-mode: normal; isolation: auto; fill: rgb(210, 210, 210); stroke: rgb(176, 176, 176);"></path>
</svg>