<svg xmlns="http://www.w3.org/2000/svg" viewBox="0 0 250 250">
  <path stroke="rgb(255,0,0)" stroke-width="0" opacity="0.984313725490196" d="M 137.169 182.368 C 148.417 189.638 151.575 216.447 139.615 222.471 C 126.873 228.889 104.536 213.481 103.668 199.241 C 102.907 186.761 126.668 175.581 137.169 182.368 Z M 179.473 51.052 C 181.367 55.411 179.825 60.615 180.94 65.234 C 182.126 70.15 186.01 74.372 186.319 79.418 C 186.534 82.923 183.709 85.938 182.407 89.199 C 178.736 98.41 176.978 108.633 171.402 116.833 C 169.489 119.647 164.666 118.245 161.621 119.767 C 159.026 121.066 157.431 123.977 154.775 125.146 C 152.444 126.174 148.114 123.747 147.194 126.124 C 143.156 136.571 161.534 174.615 121.518 164.272 C 86.754 155.288 110.078 111.522 119.562 101.182 C 124.321 95.993 134.453 98.886 139.369 93.847 C 145.035 88.039 149.457 79.423 148.661 71.348 C 148.144 66.091 141.474 61.567 136.191 61.567 C 130.039 61.567 119.412 64.681 113.693 66.947 C 111.624 67.768 101.481 67.515 90.932 69.718 C 78.251 72.365 72.1 89.749 68.455 83.82 C 61.461 72.44 62.428 54.844 69.432 43.473 C 71.342 40.37 91.492 34.091 94.62 32.223 C 116.457 19.178 169.176 27.346 179.473 51.052 Z" style="fill-opacity: 1; fill-rule: nonzero; stroke: none; stroke-dasharray: none; stroke-dashoffset: 0px; stroke-linecap: butt; stroke-linejoin: miter; stroke-miterlimit: 4; stroke-opacity: 1; stroke-width: 96px; paint-order: stroke; vector-effect: none; opacity: 1; mix-blend-mode: normal; isolation: auto; fill: rgb(255, 100, 108);"></path>
</svg>